<?xml version="1.0" encoding="UTF-8" standalone="no"?>
<!DOCTYPE svg PUBLIC "-//W3C//DTD SVG 1.1//EN"
 "http://www.w3.org/Graphics/SVG/1.1/DTD/svg11.dtd">
<!-- Generated by graphviz version 2.38.0 (20140413.2041)
 -->
<!-- Title: dependency&#45;cruiser output Pages: 1 -->
<svg width="405pt" height="652pt"
 viewBox="0.00 0.00 405.00 652.00" xmlns="http://www.w3.org/2000/svg" xmlns:xlink="http://www.w3.org/1999/xlink">
<g id="graph0" class="graph" transform="scale(1 1) rotate(0) translate(4 648)">
<title>dependency&#45;cruiser output</title>
<polygon fill="white" stroke="none" points="-4,4 -4,-648 401,-648 401,4 -4,4"/>
<g id="clust1" class="cluster"><title>cluster_src</title>
<path fill="#ffffff" stroke="black" stroke-width="2" d="M20,-146C20,-146 323,-146 323,-146 329,-146 335,-152 335,-158 335,-158 335,-624 335,-624 335,-630 329,-636 323,-636 323,-636 20,-636 20,-636 14,-636 8,-630 8,-624 8,-624 8,-158 8,-158 8,-152 14,-146 20,-146"/>
<text text-anchor="middle" x="171.5" y="-624.8" font-family="Helvetica,sans-Serif" font-weight="bold" font-size="9.00">src</text>
</g>
<g id="clust5" class="cluster"><title>cluster_src/server&#45;web&#45;app</title>
<path fill="#ffffff" stroke="black" stroke-width="2" d="M132,-154C132,-154 192,-154 192,-154 198,-154 204,-160 204,-166 204,-166 204,-194 204,-194 204,-200 198,-206 192,-206 192,-206 132,-206 132,-206 126,-206 120,-200 120,-194 120,-194 120,-166 120,-166 120,-160 126,-154 132,-154"/>
<text text-anchor="middle" x="162" y="-194.8" font-family="Helvetica,sans-Serif" font-weight="bold" font-size="9.00">server&#45;web&#45;app</text>
</g>
<g id="clust6" class="cluster"><title>cluster_src/sf&#45;engine</title>
<path fill="#ffffff" stroke="black" stroke-width="2" d="M139,-464C139,-464 313.5,-464 313.5,-464 319.5,-464 325.5,-470 325.5,-476 325.5,-476 325.5,-598 325.5,-598 325.5,-604 319.5,-610 313.5,-610 313.5,-610 139,-610 139,-610 133,-610 127,-604 127,-598 127,-598 127,-476 127,-476 127,-470 133,-464 139,-464"/>
<text text-anchor="middle" x="226.25" y="-598.8" font-family="Helvetica,sans-Serif" font-weight="bold" font-size="9.00">sf&#45;engine</text>
</g>
<g id="clust8" class="cluster"><title>cluster_src/sf&#45;engine/requester</title>
<path fill="#ffffff" stroke="black" stroke-width="2" d="M259.5,-532C259.5,-532 305.5,-532 305.5,-532 311.5,-532 317.5,-538 317.5,-544 317.5,-544 317.5,-572 317.5,-572 317.5,-578 311.5,-584 305.5,-584 305.5,-584 259.5,-584 259.5,-584 253.5,-584 247.5,-578 247.5,-572 247.5,-572 247.5,-544 247.5,-544 247.5,-538 253.5,-532 259.5,-532"/>
<text text-anchor="middle" x="282.5" y="-572.8" font-family="Helvetica,sans-Serif" font-weight="bold" font-size="9.00">requester</text>
</g>
<g id="clust7" class="cluster"><title>cluster_src/sf&#45;engine/mappers</title>
<path fill="#ffffff" stroke="black" stroke-width="2" d="M259.5,-472C259.5,-472 305.5,-472 305.5,-472 311.5,-472 317.5,-478 317.5,-484 317.5,-484 317.5,-512 317.5,-512 317.5,-518 311.5,-524 305.5,-524 305.5,-524 259.5,-524 259.5,-524 253.5,-524 247.5,-518 247.5,-512 247.5,-512 247.5,-484 247.5,-484 247.5,-478 253.5,-472 259.5,-472"/>
<text text-anchor="middle" x="282.5" y="-512.8" font-family="Helvetica,sans-Serif" font-weight="bold" font-size="9.00">mappers</text>
</g>
<g id="clust2" class="cluster"><title>cluster_src/core</title>
<path fill="#ffffff" stroke="black" stroke-width="2" d="M250,-274C250,-274 315,-274 315,-274 321,-274 327,-280 327,-286 327,-286 327,-374 327,-374 327,-380 321,-386 315,-386 315,-386 250,-386 250,-386 244,-386 238,-380 238,-374 238,-374 238,-286 238,-286 238,-280 244,-274 250,-274"/>
<text text-anchor="middle" x="282.5" y="-374.8" font-family="Helvetica,sans-Serif" font-weight="bold" font-size="9.00">core</text>
</g>
<g id="clust4" class="cluster"><title>cluster_src/server&#45;api&#45;search</title>
<path fill="#ffffff" stroke="black" stroke-width="2" d="M128,-274C128,-274 197,-274 197,-274 203,-274 209,-280 209,-286 209,-286 209,-314 209,-314 209,-320 203,-326 197,-326 197,-326 128,-326 128,-326 122,-326 116,-320 116,-314 116,-314 116,-286 116,-286 116,-280 122,-274 128,-274"/>
<text text-anchor="middle" x="162.5" y="-314.8" font-family="Helvetica,sans-Serif" font-weight="bold" font-size="9.00">server&#45;api&#45;search</text>
</g>
<g id="clust3" class="cluster"><title>cluster_src/server&#45;api&#45;result</title>
<path fill="#ffffff" stroke="black" stroke-width="2" d="M130,-214C130,-214 194,-214 194,-214 200,-214 206,-220 206,-226 206,-226 206,-254 206,-254 206,-260 200,-266 194,-266 194,-266 130,-266 130,-266 124,-266 118,-260 118,-254 118,-254 118,-226 118,-226 118,-220 124,-214 130,-214"/>
<text text-anchor="middle" x="162" y="-254.8" font-family="Helvetica,sans-Serif" font-weight="bold" font-size="9.00">server&#45;api&#45;result</text>
</g>
<g id="clust9" class="cluster"><title>cluster_src/sf&#45;mailer</title>
<path fill="#ffffff" stroke="black" stroke-width="2" d="M139,-404C139,-404 185,-404 185,-404 191,-404 197,-410 197,-416 197,-416 197,-444 197,-444 197,-450 191,-456 185,-456 185,-456 139,-456 139,-456 133,-456 127,-450 127,-444 127,-444 127,-416 127,-416 127,-410 133,-404 139,-404"/>
<text text-anchor="middle" x="162" y="-444.8" font-family="Helvetica,sans-Serif" font-weight="bold" font-size="9.00">sf&#45;mailer</text>
</g>
<g id="clust11" class="cluster"><title>cluster_src/sf&#45;registry</title>
<path fill="#ffffff" stroke="black" stroke-width="2" d="M139,-334C139,-334 185,-334 185,-334 191,-334 197,-340 197,-346 197,-346 197,-374 197,-374 197,-380 191,-386 185,-386 185,-386 139,-386 139,-386 133,-386 127,-380 127,-374 127,-374 127,-346 127,-346 127,-340 133,-334 139,-334"/>
<text text-anchor="middle" x="162" y="-374.8" font-family="Helvetica,sans-Serif" font-weight="bold" font-size="9.00">sf&#45;registry</text>
</g>
<g id="clust10" class="cluster"><title>cluster_src/sf&#45;master</title>
<path fill="#ffffff" stroke="black" stroke-width="2" d="M28,-304C28,-304 74,-304 74,-304 80,-304 86,-310 86,-316 86,-316 86,-344 86,-344 86,-350 80,-356 74,-356 74,-356 28,-356 28,-356 22,-356 16,-350 16,-344 16,-344 16,-316 16,-316 16,-310 22,-304 28,-304"/>
<text text-anchor="middle" x="51" y="-344.8" font-family="Helvetica,sans-Serif" font-weight="bold" font-size="9.00">sf&#45;master</text>
</g>
<!-- events -->
<g id="node1" class="node"><title>events</title>
<path fill="#ffffcc" stroke="grey" d="M391,-360C391,-360 349,-360 349,-360 346,-360 343,-357 343,-354 343,-354 343,-348 343,-348 343,-345 346,-342 349,-342 349,-342 391,-342 391,-342 394,-342 397,-345 397,-348 397,-348 397,-354 397,-354 397,-357 394,-360 391,-360"/>
<text text-anchor="middle" x="370" y="-348.8" font-family="Helvetica,sans-Serif" font-size="9.00" fill="grey">events</text>
</g>
<!-- fs -->
<g id="node2" class="node"><title>fs</title>
<path fill="#ffffcc" stroke="grey" d="M303.5,-108C303.5,-108 261.5,-108 261.5,-108 258.5,-108 255.5,-105 255.5,-102 255.5,-102 255.5,-96 255.5,-96 255.5,-93 258.5,-90 261.5,-90 261.5,-90 303.5,-90 303.5,-90 306.5,-90 309.5,-93 309.5,-96 309.5,-96 309.5,-102 309.5,-102 309.5,-105 306.5,-108 303.5,-108"/>
<text text-anchor="middle" x="282.5" y="-96.8" font-family="Helvetica,sans-Serif" font-size="9.00" fill="grey">fs</text>
</g>
<!-- http -->
<g id="node3" class="node"><title>http</title>
<path fill="#ffffcc" stroke="grey" d="M303.5,-138C303.5,-138 261.5,-138 261.5,-138 258.5,-138 255.5,-135 255.5,-132 255.5,-132 255.5,-126 255.5,-126 255.5,-123 258.5,-120 261.5,-120 261.5,-120 303.5,-120 303.5,-120 306.5,-120 309.5,-123 309.5,-126 309.5,-126 309.5,-132 309.5,-132 309.5,-135 306.5,-138 303.5,-138"/>
<text text-anchor="middle" x="282.5" y="-126.8" font-family="Helvetica,sans-Serif" font-size="9.00" fill="grey">http</text>
</g>
<!-- net -->
<g id="node4" class="node"><title>net</title>
<path fill="#ffffcc" stroke="grey" d="M303.5,-48C303.5,-48 261.5,-48 261.5,-48 258.5,-48 255.5,-45 255.5,-42 255.5,-42 255.5,-36 255.5,-36 255.5,-33 258.5,-30 261.5,-30 261.5,-30 303.5,-30 303.5,-30 306.5,-30 309.5,-33 309.5,-36 309.5,-36 309.5,-42 309.5,-42 309.5,-45 306.5,-48 303.5,-48"/>
<text text-anchor="middle" x="282.5" y="-36.8" font-family="Helvetica,sans-Serif" font-size="9.00" fill="grey">net</text>
</g>
<!-- os -->
<g id="node5" class="node"><title>os</title>
<path fill="#ffffcc" stroke="grey" d="M183,-138C183,-138 141,-138 141,-138 138,-138 135,-135 135,-132 135,-132 135,-126 135,-126 135,-123 138,-120 141,-120 141,-120 183,-120 183,-120 186,-120 189,-123 189,-126 189,-126 189,-132 189,-132 189,-135 186,-138 183,-138"/>
<text text-anchor="middle" x="162" y="-126.8" font-family="Helvetica,sans-Serif" font-size="9.00" fill="grey">os</text>
</g>
<!-- path -->
<g id="node6" class="node"><title>path</title>
<path fill="#ffffcc" stroke="grey" d="M303.5,-78C303.5,-78 261.5,-78 261.5,-78 258.5,-78 255.5,-75 255.5,-72 255.5,-72 255.5,-66 255.5,-66 255.5,-63 258.5,-60 261.5,-60 261.5,-60 303.5,-60 303.5,-60 306.5,-60 309.5,-63 309.5,-66 309.5,-66 309.5,-72 309.5,-72 309.5,-75 306.5,-78 303.5,-78"/>
<text text-anchor="middle" x="282.5" y="-66.8" font-family="Helvetica,sans-Serif" font-size="9.00" fill="grey">path</text>
</g>
<!-- src/core/app&#45;server.js -->
<g id="node7" class="node"><title>src/core/app&#45;server.js</title>
<g id="a_node7"><a xlink:href="src/core/app-server.js" xlink:title="app&#45;server.js">
<path fill="#ffffcc" stroke="black" d="M312,-300C312,-300 253,-300 253,-300 250,-300 247,-297 247,-294 247,-294 247,-288 247,-288 247,-285 250,-282 253,-282 253,-282 312,-282 312,-282 315,-282 318,-285 318,-288 318,-288 318,-294 318,-294 318,-297 315,-300 312,-300"/>
<text text-anchor="middle" x="282.5" y="-288.8" font-family="Helvetica,sans-Serif" font-size="9.00">app&#45;server.js</text>
</a>
</g>
</g>
<!-- util -->
<g id="node8" class="node"><title>util</title>
<path fill="#ffffcc" stroke="grey" d="M391,-300C391,-300 349,-300 349,-300 346,-300 343,-297 343,-294 343,-294 343,-288 343,-288 343,-285 346,-282 349,-282 349,-282 391,-282 391,-282 394,-282 397,-285 397,-288 397,-288 397,-294 397,-294 397,-297 394,-300 391,-300"/>
<text text-anchor="middle" x="370" y="-288.8" font-family="Helvetica,sans-Serif" font-size="9.00" fill="grey">util</text>
</g>
<!-- src/core/app&#45;server.js&#45;&gt;util -->
<g id="edge1" class="edge"><title>src/core/app&#45;server.js&#45;&gt;util</title>
<path fill="none" stroke="#000000" stroke-dasharray="5,2" stroke-opacity="0.200000" d="M318.276,-291C324.32,-291 330.584,-291 336.561,-291"/>
<polygon fill="#000000" fill-opacity="0.200000" stroke="#000000" stroke-opacity="0.200000" points="336.912,-293.1 342.912,-291 336.912,-288.9 336.912,-293.1"/>
</g>
<!-- src/core/app&#45;worker.js -->
<g id="node9" class="node"><title>src/core/app&#45;worker.js</title>
<g id="a_node9"><a xlink:href="src/core/app-worker.js" xlink:title="app&#45;worker.js">
<path fill="#ffffcc" stroke="black" d="M313,-360C313,-360 252,-360 252,-360 249,-360 246,-357 246,-354 246,-354 246,-348 246,-348 246,-345 249,-342 252,-342 252,-342 313,-342 313,-342 316,-342 319,-345 319,-348 319,-348 319,-354 319,-354 319,-357 316,-360 313,-360"/>
<text text-anchor="middle" x="282.5" y="-348.8" font-family="Helvetica,sans-Serif" font-size="9.00">app&#45;worker.js</text>
</a>
</g>
</g>
<!-- src/core/app&#45;worker.js&#45;&gt;events -->
<g id="edge2" class="edge"><title>src/core/app&#45;worker.js&#45;&gt;events</title>
<path fill="none" stroke="#000000" stroke-dasharray="5,2" stroke-opacity="0.200000" d="M319.264,-351C325.044,-351 331,-351 336.692,-351"/>
<polygon fill="#000000" fill-opacity="0.200000" stroke="#000000" stroke-opacity="0.200000" points="336.744,-353.1 342.744,-351 336.744,-348.9 336.744,-353.1"/>
</g>
<!-- src/core/sf&#45;broker.js -->
<g id="node10" class="node"><title>src/core/sf&#45;broker.js</title>
<g id="a_node10"><a xlink:href="src/core/sf-broker.js" xlink:title="sf&#45;broker.js">
<path fill="#ffffcc" stroke="black" d="M308,-330C308,-330 257,-330 257,-330 254,-330 251,-327 251,-324 251,-324 251,-318 251,-318 251,-315 254,-312 257,-312 257,-312 308,-312 308,-312 311,-312 314,-315 314,-318 314,-318 314,-324 314,-324 314,-327 311,-330 308,-330"/>
<text text-anchor="middle" x="282.5" y="-318.8" font-family="Helvetica,sans-Serif" font-size="9.00">sf&#45;broker.js</text>
</a>
</g>
</g>
<!-- src/server&#45;api&#45;result/index.js -->
<g id="node11" class="node"><title>src/server&#45;api&#45;result/index.js</title>
<g id="a_node11"><a xlink:href="src/server-api-result/index.js" xlink:title="index.js">
<path fill="#ffffcc" stroke="black" d="M183,-240C183,-240 141,-240 141,-240 138,-240 135,-237 135,-234 135,-234 135,-228 135,-228 135,-225 138,-222 141,-222 141,-222 183,-222 183,-222 186,-222 189,-225 189,-228 189,-228 189,-234 189,-234 189,-237 186,-240 183,-240"/>
<text text-anchor="middle" x="162" y="-228.8" font-family="Helvetica,sans-Serif" font-size="9.00">index.js</text>
</a>
</g>
</g>
<!-- src/server&#45;api&#45;result/index.js&#45;&gt;fs -->
<g id="edge4" class="edge"><title>src/server&#45;api&#45;result/index.js&#45;&gt;fs</title>
<path fill="none" stroke="#000000" stroke-dasharray="5,2" stroke-opacity="0.200000" d="M189.387,-222.864C196.576,-219.552 203.804,-215.04 209,-209 237.792,-175.536 207.348,-145.769 238,-114 241.276,-110.605 245.356,-107.977 249.694,-105.945"/>
<polygon fill="#000000" fill-opacity="0.200000" stroke="#000000" stroke-opacity="0.200000" points="250.517,-107.877 255.287,-103.675 248.937,-103.986 250.517,-107.877"/>
</g>
<!-- src/server&#45;api&#45;result/index.js&#45;&gt;http -->
<g id="edge5" class="edge"><title>src/server&#45;api&#45;result/index.js&#45;&gt;http</title>
<path fill="none" stroke="#000000" stroke-dasharray="5,2" stroke-opacity="0.200000" d="M186.459,-221.911C194.013,-218.44 202.185,-214.077 209,-209 234.745,-189.819 258.494,-160.493 271.394,-143.183"/>
<polygon fill="#000000" fill-opacity="0.200000" stroke="#000000" stroke-opacity="0.200000" points="273.179,-144.3 275.039,-138.222 269.794,-141.814 273.179,-144.3"/>
</g>
<!-- src/server&#45;api&#45;result/index.js&#45;&gt;net -->
<g id="edge6" class="edge"><title>src/server&#45;api&#45;result/index.js&#45;&gt;net</title>
<path fill="none" stroke="#000000" stroke-dasharray="5,2" stroke-opacity="0.200000" d="M189.34,-223.435C196.704,-220.118 204.04,-215.46 209,-209 251.683,-153.412 192.219,-107.065 238,-54 241.155,-50.3425 245.247,-47.576 249.657,-45.4836"/>
<polygon fill="#000000" fill-opacity="0.200000" stroke="#000000" stroke-opacity="0.200000" points="250.589,-47.3718 255.366,-43.1774 249.016,-43.4776 250.589,-47.3718"/>
</g>
<!-- src/server&#45;api&#45;result/index.js&#45;&gt;path -->
<g id="edge7" class="edge"><title>src/server&#45;api&#45;result/index.js&#45;&gt;path</title>
<path fill="none" stroke="#000000" stroke-dasharray="5,2" stroke-opacity="0.200000" d="M189.171,-223.302C196.528,-219.979 203.902,-215.352 209,-209 244.698,-164.523 199.825,-126.37 238,-84 241.158,-80.4947 245.175,-77.8084 249.485,-75.7498"/>
<polygon fill="#000000" fill-opacity="0.200000" stroke="#000000" stroke-opacity="0.200000" points="250.305,-77.6832 255.06,-73.4635 248.712,-73.7973 250.305,-77.6832"/>
</g>
<!-- src/server&#45;api&#45;result/index.js&#45;&gt;src/core/app&#45;server.js -->
<g id="edge3" class="edge"><title>src/server&#45;api&#45;result/index.js&#45;&gt;src/core/app&#45;server.js</title>
<path fill="none" stroke="#000000" stroke-width="2" stroke-opacity="0.200000" d="M180.998,-240.113C201.65,-250.569 235.576,-267.747 258.222,-279.214"/>
<polygon fill="#000000" fill-opacity="0.200000" stroke="#000000" stroke-width="2" stroke-opacity="0.200000" points="257.42,-281.161 263.721,-281.998 259.317,-277.414 257.42,-281.161"/>
</g>
<!-- src/server&#45;api&#45;search/index.js -->
<g id="node12" class="node"><title>src/server&#45;api&#45;search/index.js</title>
<g id="a_node12"><a xlink:href="src/server-api-search/index.js" xlink:title="index.js">
<path fill="#ffffcc" stroke="black" d="M183,-300C183,-300 141,-300 141,-300 138,-300 135,-297 135,-294 135,-294 135,-288 135,-288 135,-285 138,-282 141,-282 141,-282 183,-282 183,-282 186,-282 189,-285 189,-288 189,-288 189,-294 189,-294 189,-297 186,-300 183,-300"/>
<text text-anchor="middle" x="162" y="-288.8" font-family="Helvetica,sans-Serif" font-size="9.00">index.js</text>
</a>
</g>
</g>
<!-- src/server&#45;api&#45;search/index.js&#45;&gt;http -->
<g id="edge9" class="edge"><title>src/server&#45;api&#45;search/index.js&#45;&gt;http</title>
<path fill="none" stroke="#000000" stroke-dasharray="5,2" stroke-opacity="0.200000" d="M189.201,-282.015C196.221,-278.714 203.405,-274.42 209,-269 246.674,-232.503 268.571,-172.196 277.2,-144.178"/>
<polygon fill="#000000" fill-opacity="0.200000" stroke="#000000" stroke-opacity="0.200000" points="279.313,-144.441 279.021,-138.091 275.29,-143.237 279.313,-144.441"/>
</g>
<!-- src/server&#45;api&#45;search/index.js&#45;&gt;src/core/app&#45;server.js -->
<g id="edge8" class="edge"><title>src/server&#45;api&#45;search/index.js&#45;&gt;src/core/app&#45;server.js</title>
<path fill="none" stroke="#000000" stroke-width="2" stroke-opacity="0.200000" d="M189.005,-291C204.053,-291 223.332,-291 240.39,-291"/>
<polygon fill="#000000" fill-opacity="0.200000" stroke="#000000" stroke-width="2" stroke-opacity="0.200000" points="240.562,-293.1 246.562,-291 240.562,-288.9 240.562,-293.1"/>
</g>
<!-- src/server&#45;web&#45;app/index.js -->
<g id="node13" class="node"><title>src/server&#45;web&#45;app/index.js</title>
<g id="a_node13"><a xlink:href="src/server-web-app/index.js" xlink:title="index.js">
<path fill="#ffffcc" stroke="black" d="M183,-180C183,-180 141,-180 141,-180 138,-180 135,-177 135,-174 135,-174 135,-168 135,-168 135,-165 138,-162 141,-162 141,-162 183,-162 183,-162 186,-162 189,-165 189,-168 189,-168 189,-174 189,-174 189,-177 186,-180 183,-180"/>
<text text-anchor="middle" x="162" y="-168.8" font-family="Helvetica,sans-Serif" font-size="9.00">index.js</text>
</a>
</g>
</g>
<!-- src/server&#45;web&#45;app/index.js&#45;&gt;fs -->
<g id="edge11" class="edge"><title>src/server&#45;web&#45;app/index.js&#45;&gt;fs</title>
<path fill="none" stroke="#000000" stroke-dasharray="5,2" stroke-opacity="0.200000" d="M181.203,-161.811C189.968,-157.02 200.412,-150.756 209,-144 223.575,-132.534 222.359,-123.964 238,-114 241.531,-111.751 245.439,-109.794 249.422,-108.104"/>
<polygon fill="#000000" fill-opacity="0.200000" stroke="#000000" stroke-opacity="0.200000" points="250.452,-109.956 255.276,-105.815 248.923,-106.044 250.452,-109.956"/>
</g>
<!-- src/server&#45;web&#45;app/index.js&#45;&gt;http -->
<g id="edge12" class="edge"><title>src/server&#45;web&#45;app/index.js&#45;&gt;http</title>
<path fill="none" stroke="#000000" stroke-dasharray="5,2" stroke-opacity="0.200000" d="M188.421,-161.99C206.417,-155.612 230.675,-147.014 249.915,-140.195"/>
<polygon fill="#000000" fill-opacity="0.200000" stroke="#000000" stroke-opacity="0.200000" points="250.758,-142.124 255.712,-138.14 249.355,-138.165 250.758,-142.124"/>
</g>
<!-- src/server&#45;web&#45;app/index.js&#45;&gt;net -->
<g id="edge13" class="edge"><title>src/server&#45;web&#45;app/index.js&#45;&gt;net</title>
<path fill="none" stroke="#000000" stroke-dasharray="5,2" stroke-opacity="0.200000" d="M185.547,-161.941C193.917,-157.603 202.859,-151.658 209,-144 235.29,-111.213 208.587,-84.0171 238,-54 241.302,-50.63 245.396,-48.0165 249.741,-45.99"/>
<polygon fill="#000000" fill-opacity="0.200000" stroke="#000000" stroke-opacity="0.200000" points="250.564,-47.9224 255.337,-43.7241 248.987,-44.0294 250.564,-47.9224"/>
</g>
<!-- src/server&#45;web&#45;app/index.js&#45;&gt;path -->
<g id="edge14" class="edge"><title>src/server&#45;web&#45;app/index.js&#45;&gt;path</title>
<path fill="none" stroke="#000000" stroke-dasharray="5,2" stroke-opacity="0.200000" d="M184.08,-161.977C192.629,-157.525 202.093,-151.487 209,-144 229.083,-122.231 215.857,-103.67 238,-84 241.367,-81.0091 245.36,-78.6081 249.541,-76.6822"/>
<polygon fill="#000000" fill-opacity="0.200000" stroke="#000000" stroke-opacity="0.200000" points="250.547,-78.5407 255.318,-74.3397 248.968,-74.6486 250.547,-78.5407"/>
</g>
<!-- src/server&#45;web&#45;app/index.js&#45;&gt;src/core/app&#45;server.js -->
<g id="edge10" class="edge"><title>src/server&#45;web&#45;app/index.js&#45;&gt;src/core/app&#45;server.js</title>
<path fill="none" stroke="#000000" stroke-width="2" stroke-opacity="0.200000" d="M174.296,-180.18C183.816,-188.067 197.66,-199.891 209,-211 231.569,-233.111 255.85,-260.788 269.803,-277.115"/>
<polygon fill="#000000" fill-opacity="0.200000" stroke="#000000" stroke-width="2" stroke-opacity="0.200000" points="268.301,-278.591 273.788,-281.799 271.5,-275.869 268.301,-278.591"/>
</g>
<!-- stream -->
<g id="node14" class="node"><title>stream</title>
<path fill="#ffffcc" stroke="grey" d="M303.5,-18C303.5,-18 261.5,-18 261.5,-18 258.5,-18 255.5,-15 255.5,-12 255.5,-12 255.5,-6 255.5,-6 255.5,-3 258.5,-0 261.5,-0 261.5,-0 303.5,-0 303.5,-0 306.5,-0 309.5,-3 309.5,-6 309.5,-6 309.5,-12 309.5,-12 309.5,-15 306.5,-18 303.5,-18"/>
<text text-anchor="middle" x="282.5" y="-6.8" font-family="Helvetica,sans-Serif" font-size="9.00" fill="grey">stream</text>
</g>
<!-- src/server&#45;web&#45;app/index.js&#45;&gt;stream -->
<g id="edge15" class="edge"><title>src/server&#45;web&#45;app/index.js&#45;&gt;stream</title>
<path fill="none" stroke="#000000" stroke-dasharray="5,2" stroke-opacity="0.200000" d="M186.322,-161.926C194.592,-157.639 203.26,-151.733 209,-144 241.704,-99.9433 201.087,-64.5953 238,-24 241.174,-20.5092 245.199,-17.8307 249.513,-15.7755"/>
<polygon fill="#000000" fill-opacity="0.200000" stroke="#000000" stroke-opacity="0.200000" points="250.334,-17.7088 255.091,-13.4914 248.742,-13.8221 250.334,-17.7088"/>
</g>
<!-- src/sf&#45;engine/index.js -->
<g id="node15" class="node"><title>src/sf&#45;engine/index.js</title>
<g id="a_node15"><a xlink:href="src/sf-engine/index.js" xlink:title="index.js">
<path fill="#ffffcc" stroke="black" d="M183,-494C183,-494 141,-494 141,-494 138,-494 135,-491 135,-488 135,-488 135,-482 135,-482 135,-479 138,-476 141,-476 141,-476 183,-476 183,-476 186,-476 189,-479 189,-482 189,-482 189,-488 189,-488 189,-491 186,-494 183,-494"/>
<text text-anchor="middle" x="162" y="-482.8" font-family="Helvetica,sans-Serif" font-size="9.00">index.js</text>
</a>
</g>
</g>
<!-- src/sf&#45;engine/index.js&#45;&gt;src/core/app&#45;worker.js -->
<g id="edge16" class="edge"><title>src/sf&#45;engine/index.js&#45;&gt;src/core/app&#45;worker.js</title>
<path fill="none" stroke="#000000" stroke-width="2" stroke-opacity="0.200000" d="M183.595,-475.966C192.062,-471.621 201.596,-465.856 209,-459 239.268,-430.97 263.256,-387.95 274.513,-365.606"/>
<polygon fill="#000000" fill-opacity="0.200000" stroke="#000000" stroke-width="2" stroke-opacity="0.200000" points="276.441,-366.446 277.222,-360.137 272.677,-364.582 276.441,-366.446"/>
</g>
<!-- src/sf&#45;engine/mappers/index.js -->
<g id="node16" class="node"><title>src/sf&#45;engine/mappers/index.js</title>
<g id="a_node16"><a xlink:href="src/sf-engine/mappers/index.js" xlink:title="index.js">
<path fill="#ffffcc" stroke="black" d="M303.5,-498C303.5,-498 261.5,-498 261.5,-498 258.5,-498 255.5,-495 255.5,-492 255.5,-492 255.5,-486 255.5,-486 255.5,-483 258.5,-480 261.5,-480 261.5,-480 303.5,-480 303.5,-480 306.5,-480 309.5,-483 309.5,-486 309.5,-486 309.5,-492 309.5,-492 309.5,-495 306.5,-498 303.5,-498"/>
<text text-anchor="middle" x="282.5" y="-486.8" font-family="Helvetica,sans-Serif" font-size="9.00">index.js</text>
</a>
</g>
</g>
<!-- src/sf&#45;engine/index.js&#45;&gt;src/sf&#45;engine/mappers/index.js -->
<g id="edge17" class="edge"><title>src/sf&#45;engine/index.js&#45;&gt;src/sf&#45;engine/mappers/index.js</title>
<path fill="none" stroke="#000000" stroke-width="2" stroke-opacity="0.200000" d="M189.005,-485.878C206.634,-486.473 230.068,-487.264 248.937,-487.901"/>
<polygon fill="#000000" fill-opacity="0.200000" stroke="#000000" stroke-width="2" stroke-opacity="0.200000" points="249.078,-490.007 255.146,-488.11 249.22,-485.809 249.078,-490.007"/>
</g>
<!-- src/sf&#45;engine/requester/index.js -->
<g id="node17" class="node"><title>src/sf&#45;engine/requester/index.js</title>
<g id="a_node17"><a xlink:href="src/sf-engine/requester/index.js" xlink:title="index.js">
<path fill="#ffffcc" stroke="black" d="M303.5,-558C303.5,-558 261.5,-558 261.5,-558 258.5,-558 255.5,-555 255.5,-552 255.5,-552 255.5,-546 255.5,-546 255.5,-543 258.5,-540 261.5,-540 261.5,-540 303.5,-540 303.5,-540 306.5,-540 309.5,-543 309.5,-546 309.5,-546 309.5,-552 309.5,-552 309.5,-555 306.5,-558 303.5,-558"/>
<text text-anchor="middle" x="282.5" y="-546.8" font-family="Helvetica,sans-Serif" font-size="9.00">index.js</text>
</a>
</g>
</g>
<!-- src/sf&#45;engine/index.js&#45;&gt;src/sf&#45;engine/requester/index.js -->
<g id="edge18" class="edge"><title>src/sf&#45;engine/index.js&#45;&gt;src/sf&#45;engine/requester/index.js</title>
<path fill="none" stroke="#000000" stroke-width="2" stroke-opacity="0.200000" d="M178.696,-494.044C193.797,-502.685 217.32,-515.986 238,-527 244.291,-530.35 251.151,-533.877 257.524,-537.102"/>
<polygon fill="#000000" fill-opacity="0.200000" stroke="#000000" stroke-width="2" stroke-opacity="0.200000" points="256.906,-539.142 263.21,-539.965 258.795,-535.391 256.906,-539.142"/>
</g>
<!-- src/sf&#45;mailer/index.js -->
<g id="node18" class="node"><title>src/sf&#45;mailer/index.js</title>
<g id="a_node18"><a xlink:href="src/sf-mailer/index.js" xlink:title="index.js">
<path fill="#ffffcc" stroke="black" d="M183,-430C183,-430 141,-430 141,-430 138,-430 135,-427 135,-424 135,-424 135,-418 135,-418 135,-415 138,-412 141,-412 141,-412 183,-412 183,-412 186,-412 189,-415 189,-418 189,-418 189,-424 189,-424 189,-427 186,-430 183,-430"/>
<text text-anchor="middle" x="162" y="-418.8" font-family="Helvetica,sans-Serif" font-size="9.00">index.js</text>
</a>
</g>
</g>
<!-- src/sf&#45;mailer/index.js&#45;&gt;src/core/app&#45;worker.js -->
<g id="edge19" class="edge"><title>src/sf&#45;mailer/index.js&#45;&gt;src/core/app&#45;worker.js</title>
<path fill="none" stroke="#000000" stroke-width="2" stroke-opacity="0.200000" d="M183.462,-411.956C191.546,-408.192 200.836,-403.626 209,-399 228.418,-387.999 249.588,-373.695 264.01,-363.573"/>
<polygon fill="#000000" fill-opacity="0.200000" stroke="#000000" stroke-width="2" stroke-opacity="0.200000" points="265.313,-365.223 269.002,-360.046 262.89,-361.793 265.313,-365.223"/>
</g>
<!-- src/sf&#45;master/index.js -->
<g id="node19" class="node"><title>src/sf&#45;master/index.js</title>
<g id="a_node19"><a xlink:href="src/sf-master/index.js" xlink:title="index.js">
<path fill="#ffffcc" stroke="black" d="M72,-330C72,-330 30,-330 30,-330 27,-330 24,-327 24,-324 24,-324 24,-318 24,-318 24,-315 27,-312 30,-312 30,-312 72,-312 72,-312 75,-312 78,-315 78,-318 78,-318 78,-324 78,-324 78,-327 75,-330 72,-330"/>
<text text-anchor="middle" x="51" y="-318.8" font-family="Helvetica,sans-Serif" font-size="9.00">index.js</text>
</a>
</g>
</g>
<!-- src/sf&#45;master/index.js&#45;&gt;os -->
<g id="edge27" class="edge"><title>src/sf&#45;master/index.js&#45;&gt;os</title>
<path fill="none" stroke="#000000" stroke-dasharray="5,2" stroke-opacity="0.200000" d="M53.0871,-311.651C56.782,-283.793 71.2271,-200.225 116,-151 119.781,-146.843 124.521,-143.382 129.495,-140.532"/>
<polygon fill="#000000" fill-opacity="0.200000" stroke="#000000" stroke-opacity="0.200000" points="130.609,-142.319 134.949,-137.674 128.66,-138.599 130.609,-142.319"/>
</g>
<!-- src/sf&#45;master/index.js&#45;&gt;src/core/sf&#45;broker.js -->
<g id="edge20" class="edge"><title>src/sf&#45;master/index.js&#45;&gt;src/core/sf&#45;broker.js</title>
<path fill="none" stroke="#000000" stroke-width="2" stroke-opacity="0.200000" d="M57.2257,-330.286C66.6208,-345.905 88.0214,-376.911 116,-389 134.972,-397.197 191.222,-399.538 209,-389 232.098,-375.309 217.482,-353.32 238,-336 240.247,-334.103 242.748,-332.441 245.382,-330.987"/>
<polygon fill="#000000" fill-opacity="0.200000" stroke="#000000" stroke-width="2" stroke-opacity="0.200000" points="246.463,-332.796 250.939,-328.282 244.625,-329.02 246.463,-332.796"/>
</g>
<!-- src/sf&#45;master/index.js&#45;&gt;src/server&#45;api&#45;result/index.js -->
<g id="edge21" class="edge"><title>src/sf&#45;master/index.js&#45;&gt;src/server&#45;api&#45;result/index.js</title>
<path fill="none" stroke="#000000" stroke-width="2" stroke-opacity="0.200000" d="M63.2544,-311.707C82.7739,-295.59 122.949,-262.418 145.236,-244.016"/>
<polygon fill="#000000" fill-opacity="0.200000" stroke="#000000" stroke-width="2" stroke-opacity="0.200000" points="146.68,-245.548 149.969,-240.108 144.005,-242.309 146.68,-245.548"/>
</g>
<!-- src/sf&#45;master/index.js&#45;&gt;src/server&#45;api&#45;search/index.js -->
<g id="edge22" class="edge"><title>src/sf&#45;master/index.js&#45;&gt;src/server&#45;api&#45;search/index.js</title>
<path fill="none" stroke="#000000" stroke-width="2" stroke-opacity="0.200000" d="M78.1082,-313.814C93.3656,-309.615 112.742,-304.282 128.923,-299.828"/>
<polygon fill="#000000" fill-opacity="0.200000" stroke="#000000" stroke-width="2" stroke-opacity="0.200000" points="129.499,-301.848 134.727,-298.231 128.385,-297.799 129.499,-301.848"/>
</g>
<!-- src/sf&#45;master/index.js&#45;&gt;src/server&#45;web&#45;app/index.js -->
<g id="edge23" class="edge"><title>src/sf&#45;master/index.js&#45;&gt;src/server&#45;web&#45;app/index.js</title>
<path fill="none" stroke="#000000" stroke-width="2" stroke-opacity="0.200000" d="M56.1019,-311.834C65.1651,-292.147 88.304,-244.863 116,-211 124.152,-201.033 134.879,-191.396 143.814,-184.079"/>
<polygon fill="#000000" fill-opacity="0.200000" stroke="#000000" stroke-width="2" stroke-opacity="0.200000" points="145.201,-185.659 148.566,-180.266 142.572,-182.383 145.201,-185.659"/>
</g>
<!-- src/sf&#45;master/index.js&#45;&gt;src/sf&#45;engine/index.js -->
<g id="edge24" class="edge"><title>src/sf&#45;master/index.js&#45;&gt;src/sf&#45;engine/index.js</title>
<path fill="none" stroke="#000000" stroke-width="2" stroke-opacity="0.200000" d="M54.1699,-330.141C60.2203,-353.957 79.2939,-418.845 116,-459 121.041,-464.515 127.53,-469.183 134.002,-472.974"/>
<polygon fill="#000000" fill-opacity="0.200000" stroke="#000000" stroke-width="2" stroke-opacity="0.200000" points="133.134,-474.894 139.403,-475.952 135.163,-471.216 133.134,-474.894"/>
</g>
<!-- src/sf&#45;master/index.js&#45;&gt;src/sf&#45;mailer/index.js -->
<g id="edge25" class="edge"><title>src/sf&#45;master/index.js&#45;&gt;src/sf&#45;mailer/index.js</title>
<path fill="none" stroke="#000000" stroke-width="2" stroke-opacity="0.200000" d="M57.6808,-330.262C67.7629,-346.081 90.1713,-378.571 116,-399 120.809,-402.803 126.381,-406.18 131.933,-409.077"/>
<polygon fill="#000000" fill-opacity="0.200000" stroke="#000000" stroke-width="2" stroke-opacity="0.200000" points="131.14,-411.028 137.448,-411.812 133.006,-407.265 131.14,-411.028"/>
</g>
<!-- src/sf&#45;registry/index.js -->
<g id="node20" class="node"><title>src/sf&#45;registry/index.js</title>
<g id="a_node20"><a xlink:href="src/sf-registry/index.js" xlink:title="index.js">
<path fill="#ffffcc" stroke="black" d="M183,-360C183,-360 141,-360 141,-360 138,-360 135,-357 135,-354 135,-354 135,-348 135,-348 135,-345 138,-342 141,-342 141,-342 183,-342 183,-342 186,-342 189,-345 189,-348 189,-348 189,-354 189,-354 189,-357 186,-360 183,-360"/>
<text text-anchor="middle" x="162" y="-348.8" font-family="Helvetica,sans-Serif" font-size="9.00">index.js</text>
</a>
</g>
</g>
<!-- src/sf&#45;master/index.js&#45;&gt;src/sf&#45;registry/index.js -->
<g id="edge26" class="edge"><title>src/sf&#45;master/index.js&#45;&gt;src/sf&#45;registry/index.js</title>
<path fill="none" stroke="#000000" stroke-width="2" stroke-opacity="0.200000" d="M78.1082,-328.186C93.3656,-332.385 112.742,-337.718 128.923,-342.172"/>
<polygon fill="#000000" fill-opacity="0.200000" stroke="#000000" stroke-width="2" stroke-opacity="0.200000" points="128.385,-344.201 134.727,-343.769 129.499,-340.152 128.385,-344.201"/>
</g>
<!-- src/sf&#45;registry/index.js&#45;&gt;src/core/app&#45;worker.js -->
<g id="edge28" class="edge"><title>src/sf&#45;registry/index.js&#45;&gt;src/core/app&#45;worker.js</title>
<path fill="none" stroke="#000000" stroke-width="2" stroke-opacity="0.200000" d="M189.005,-351C203.811,-351 222.711,-351 239.563,-351"/>
<polygon fill="#000000" fill-opacity="0.200000" stroke="#000000" stroke-width="2" stroke-opacity="0.200000" points="239.667,-353.1 245.667,-351 239.667,-348.9 239.667,-353.1"/>
</g>
</g>
</svg>
