<?xml version="1.0" encoding="UTF-8" standalone="no"?>
<!DOCTYPE svg PUBLIC "-//W3C//DTD SVG 1.1//EN"
 "http://www.w3.org/Graphics/SVG/1.1/DTD/svg11.dtd">
<!-- Generated by graphviz version 2.38.0 (20140413.2041)
 -->
<!-- Title: dependency&#45;cruiser output Pages: 1 -->
<svg width="410pt" height="642pt"
 viewBox="0.00 0.00 410.00 642.00" xmlns="http://www.w3.org/2000/svg" xmlns:xlink="http://www.w3.org/1999/xlink">
<g id="graph0" class="graph" transform="scale(1 1) rotate(0) translate(4 638)">
<title>dependency&#45;cruiser output</title>
<polygon fill="white" stroke="none" points="-4,4 -4,-638 406,-638 406,4 -4,4"/>
<g id="clust1" class="cluster"><title>cluster_src</title>
<path fill="#ffffff" stroke="black" stroke-width="2" d="M20,-146C20,-146 328,-146 328,-146 334,-146 340,-152 340,-158 340,-158 340,-614 340,-614 340,-620 334,-626 328,-626 328,-626 20,-626 20,-626 14,-626 8,-620 8,-614 8,-614 8,-158 8,-158 8,-152 14,-146 20,-146"/>
<text text-anchor="middle" x="174" y="-614.8" font-family="Helvetica,sans-Serif" font-weight="bold" font-size="9.00">src</text>
</g>
<g id="clust6" class="cluster"><title>cluster_src/sf&#45;engine</title>
<path fill="#ffffff" stroke="black" stroke-width="2" d="M141,-454C141,-454 318.5,-454 318.5,-454 324.5,-454 330.5,-460 330.5,-466 330.5,-466 330.5,-588 330.5,-588 330.5,-594 324.5,-600 318.5,-600 318.5,-600 141,-600 141,-600 135,-600 129,-594 129,-588 129,-588 129,-466 129,-466 129,-460 135,-454 141,-454"/>
<text text-anchor="middle" x="229.75" y="-588.8" font-family="Helvetica,sans-Serif" font-weight="bold" font-size="9.00">sf&#45;engine</text>
</g>
<g id="clust8" class="cluster"><title>cluster_src/sf&#45;engine/requester</title>
<path fill="#ffffff" stroke="black" stroke-width="2" d="M264.5,-522C264.5,-522 310.5,-522 310.5,-522 316.5,-522 322.5,-528 322.5,-534 322.5,-534 322.5,-562 322.5,-562 322.5,-568 316.5,-574 310.5,-574 310.5,-574 264.5,-574 264.5,-574 258.5,-574 252.5,-568 252.5,-562 252.5,-562 252.5,-534 252.5,-534 252.5,-528 258.5,-522 264.5,-522"/>
<text text-anchor="middle" x="287.5" y="-562.8" font-family="Helvetica,sans-Serif" font-weight="bold" font-size="9.00">requester</text>
</g>
<g id="clust7" class="cluster"><title>cluster_src/sf&#45;engine/mappers</title>
<path fill="#ffffff" stroke="black" stroke-width="2" d="M264.5,-462C264.5,-462 310.5,-462 310.5,-462 316.5,-462 322.5,-468 322.5,-474 322.5,-474 322.5,-502 322.5,-502 322.5,-508 316.5,-514 310.5,-514 310.5,-514 264.5,-514 264.5,-514 258.5,-514 252.5,-508 252.5,-502 252.5,-502 252.5,-474 252.5,-474 252.5,-468 258.5,-462 264.5,-462"/>
<text text-anchor="middle" x="287.5" y="-502.8" font-family="Helvetica,sans-Serif" font-weight="bold" font-size="9.00">mappers</text>
</g>
<g id="clust9" class="cluster"><title>cluster_src/sf&#45;mailer</title>
<path fill="#ffffff" stroke="black" stroke-width="2" d="M141,-334C141,-334 187,-334 187,-334 193,-334 199,-340 199,-346 199,-346 199,-374 199,-374 199,-380 193,-386 187,-386 187,-386 141,-386 141,-386 135,-386 129,-380 129,-374 129,-374 129,-346 129,-346 129,-340 135,-334 141,-334"/>
<text text-anchor="middle" x="164" y="-374.8" font-family="Helvetica,sans-Serif" font-weight="bold" font-size="9.00">sf&#45;mailer</text>
</g>
<g id="clust5" class="cluster"><title>cluster_src/server&#45;web&#45;app</title>
<path fill="#ffffff" stroke="black" stroke-width="2" d="M134,-154C134,-154 194,-154 194,-154 200,-154 206,-160 206,-166 206,-166 206,-194 206,-194 206,-200 200,-206 194,-206 194,-206 134,-206 134,-206 128,-206 122,-200 122,-194 122,-194 122,-166 122,-166 122,-160 128,-154 134,-154"/>
<text text-anchor="middle" x="164" y="-194.8" font-family="Helvetica,sans-Serif" font-weight="bold" font-size="9.00">server&#45;web&#45;app</text>
</g>
<g id="clust2" class="cluster"><title>cluster_src/core</title>
<path fill="#ffffff" stroke="black" stroke-width="2" d="M255,-289C255,-289 320,-289 320,-289 326,-289 332,-295 332,-301 332,-301 332,-359 332,-359 332,-365 326,-371 320,-371 320,-371 255,-371 255,-371 249,-371 243,-365 243,-359 243,-359 243,-301 243,-301 243,-295 249,-289 255,-289"/>
<text text-anchor="middle" x="287.5" y="-359.8" font-family="Helvetica,sans-Serif" font-weight="bold" font-size="9.00">core</text>
</g>
<g id="clust3" class="cluster"><title>cluster_src/server&#45;api&#45;result</title>
<path fill="#ffffff" stroke="black" stroke-width="2" d="M132,-214C132,-214 196,-214 196,-214 202,-214 208,-220 208,-226 208,-226 208,-254 208,-254 208,-260 202,-266 196,-266 196,-266 132,-266 132,-266 126,-266 120,-260 120,-254 120,-254 120,-226 120,-226 120,-220 126,-214 132,-214"/>
<text text-anchor="middle" x="164" y="-254.8" font-family="Helvetica,sans-Serif" font-weight="bold" font-size="9.00">server&#45;api&#45;result</text>
</g>
<g id="clust4" class="cluster"><title>cluster_src/server&#45;api&#45;search</title>
<path fill="#ffffff" stroke="black" stroke-width="2" d="M130,-274C130,-274 199,-274 199,-274 205,-274 211,-280 211,-286 211,-286 211,-314 211,-314 211,-320 205,-326 199,-326 199,-326 130,-326 130,-326 124,-326 118,-320 118,-314 118,-314 118,-286 118,-286 118,-280 124,-274 130,-274"/>
<text text-anchor="middle" x="164.5" y="-314.8" font-family="Helvetica,sans-Serif" font-weight="bold" font-size="9.00">server&#45;api&#45;search</text>
</g>
<g id="clust11" class="cluster"><title>cluster_src/sf&#45;registry</title>
<path fill="#ffffff" stroke="black" stroke-width="2" d="M141,-394C141,-394 187,-394 187,-394 193,-394 199,-400 199,-406 199,-406 199,-434 199,-434 199,-440 193,-446 187,-446 187,-446 141,-446 141,-446 135,-446 129,-440 129,-434 129,-434 129,-406 129,-406 129,-400 135,-394 141,-394"/>
<text text-anchor="middle" x="164" y="-434.8" font-family="Helvetica,sans-Serif" font-weight="bold" font-size="9.00">sf&#45;registry</text>
</g>
<g id="clust10" class="cluster"><title>cluster_src/sf&#45;master</title>
<path fill="#ffffff" stroke="black" stroke-width="2" d="M28,-274C28,-274 74,-274 74,-274 80,-274 86,-280 86,-286 86,-286 86,-314 86,-314 86,-320 80,-326 74,-326 74,-326 28,-326 28,-326 22,-326 16,-320 16,-314 16,-314 16,-286 16,-286 16,-280 22,-274 28,-274"/>
<text text-anchor="middle" x="51" y="-314.8" font-family="Helvetica,sans-Serif" font-weight="bold" font-size="9.00">sf&#45;master</text>
</g>
<!-- events -->
<g id="node1" class="node"><title>events</title>
<path fill="#ffffcc" stroke="grey" d="M396,-345C396,-345 354,-345 354,-345 351,-345 348,-342 348,-339 348,-339 348,-333 348,-333 348,-330 351,-327 354,-327 354,-327 396,-327 396,-327 399,-327 402,-330 402,-333 402,-333 402,-339 402,-339 402,-342 399,-345 396,-345"/>
<text text-anchor="middle" x="375" y="-333.8" font-family="Helvetica,sans-Serif" font-size="9.00" fill="grey">events</text>
</g>
<!-- fs -->
<g id="node2" class="node"><title>fs</title>
<path fill="#ffffcc" stroke="grey" d="M308.5,-108C308.5,-108 266.5,-108 266.5,-108 263.5,-108 260.5,-105 260.5,-102 260.5,-102 260.5,-96 260.5,-96 260.5,-93 263.5,-90 266.5,-90 266.5,-90 308.5,-90 308.5,-90 311.5,-90 314.5,-93 314.5,-96 314.5,-96 314.5,-102 314.5,-102 314.5,-105 311.5,-108 308.5,-108"/>
<text text-anchor="middle" x="287.5" y="-96.8" font-family="Helvetica,sans-Serif" font-size="9.00" fill="grey">fs</text>
</g>
<!-- http -->
<g id="node3" class="node"><title>http</title>
<path fill="#ffffcc" stroke="grey" d="M308.5,-138C308.5,-138 266.5,-138 266.5,-138 263.5,-138 260.5,-135 260.5,-132 260.5,-132 260.5,-126 260.5,-126 260.5,-123 263.5,-120 266.5,-120 266.5,-120 308.5,-120 308.5,-120 311.5,-120 314.5,-123 314.5,-126 314.5,-126 314.5,-132 314.5,-132 314.5,-135 311.5,-138 308.5,-138"/>
<text text-anchor="middle" x="287.5" y="-126.8" font-family="Helvetica,sans-Serif" font-size="9.00" fill="grey">http</text>
</g>
<!-- net -->
<g id="node4" class="node"><title>net</title>
<path fill="#ffffcc" stroke="grey" d="M308.5,-48C308.5,-48 266.5,-48 266.5,-48 263.5,-48 260.5,-45 260.5,-42 260.5,-42 260.5,-36 260.5,-36 260.5,-33 263.5,-30 266.5,-30 266.5,-30 308.5,-30 308.5,-30 311.5,-30 314.5,-33 314.5,-36 314.5,-36 314.5,-42 314.5,-42 314.5,-45 311.5,-48 308.5,-48"/>
<text text-anchor="middle" x="287.5" y="-36.8" font-family="Helvetica,sans-Serif" font-size="9.00" fill="grey">net</text>
</g>
<!-- os -->
<g id="node5" class="node"><title>os</title>
<path fill="#ffffcc" stroke="grey" d="M185,-138C185,-138 143,-138 143,-138 140,-138 137,-135 137,-132 137,-132 137,-126 137,-126 137,-123 140,-120 143,-120 143,-120 185,-120 185,-120 188,-120 191,-123 191,-126 191,-126 191,-132 191,-132 191,-135 188,-138 185,-138"/>
<text text-anchor="middle" x="164" y="-126.8" font-family="Helvetica,sans-Serif" font-size="9.00" fill="grey">os</text>
</g>
<!-- path -->
<g id="node6" class="node"><title>path</title>
<path fill="#ffffcc" stroke="grey" d="M308.5,-78C308.5,-78 266.5,-78 266.5,-78 263.5,-78 260.5,-75 260.5,-72 260.5,-72 260.5,-66 260.5,-66 260.5,-63 263.5,-60 266.5,-60 266.5,-60 308.5,-60 308.5,-60 311.5,-60 314.5,-63 314.5,-66 314.5,-66 314.5,-72 314.5,-72 314.5,-75 311.5,-78 308.5,-78"/>
<text text-anchor="middle" x="287.5" y="-66.8" font-family="Helvetica,sans-Serif" font-size="9.00" fill="grey">path</text>
</g>
<!-- src/core/app&#45;server.js -->
<g id="node7" class="node"><title>src/core/app&#45;server.js</title>
<g id="a_node7"><a xlink:href="src/core/app-server.js" xlink:title="app&#45;server.js">
<path fill="#ffffcc" stroke="black" d="M317,-315C317,-315 258,-315 258,-315 255,-315 252,-312 252,-309 252,-309 252,-303 252,-303 252,-300 255,-297 258,-297 258,-297 317,-297 317,-297 320,-297 323,-300 323,-303 323,-303 323,-309 323,-309 323,-312 320,-315 317,-315"/>
<text text-anchor="middle" x="287.5" y="-303.8" font-family="Helvetica,sans-Serif" font-size="9.00">app&#45;server.js</text>
</a>
</g>
</g>
<!-- util -->
<g id="node8" class="node"><title>util</title>
<path fill="#ffffcc" stroke="grey" d="M396,-315C396,-315 354,-315 354,-315 351,-315 348,-312 348,-309 348,-309 348,-303 348,-303 348,-300 351,-297 354,-297 354,-297 396,-297 396,-297 399,-297 402,-300 402,-303 402,-303 402,-309 402,-309 402,-312 399,-315 396,-315"/>
<text text-anchor="middle" x="375" y="-303.8" font-family="Helvetica,sans-Serif" font-size="9.00" fill="grey">util</text>
</g>
<!-- src/core/app&#45;server.js&#45;&gt;util -->
<g id="edge1" class="edge"><title>src/core/app&#45;server.js&#45;&gt;util</title>
<path fill="none" stroke="#000000" stroke-dasharray="5,2" stroke-opacity="0.200000" d="M323.276,-306C329.32,-306 335.584,-306 341.561,-306"/>
<polygon fill="#000000" fill-opacity="0.200000" stroke="#000000" stroke-opacity="0.200000" points="341.912,-308.1 347.912,-306 341.912,-303.9 341.912,-308.1"/>
</g>
<!-- src/core/app&#45;worker.js -->
<g id="node9" class="node"><title>src/core/app&#45;worker.js</title>
<g id="a_node9"><a xlink:href="src/core/app-worker.js" xlink:title="app&#45;worker.js">
<path fill="#ffffcc" stroke="black" d="M318,-345C318,-345 257,-345 257,-345 254,-345 251,-342 251,-339 251,-339 251,-333 251,-333 251,-330 254,-327 257,-327 257,-327 318,-327 318,-327 321,-327 324,-330 324,-333 324,-333 324,-339 324,-339 324,-342 321,-345 318,-345"/>
<text text-anchor="middle" x="287.5" y="-333.8" font-family="Helvetica,sans-Serif" font-size="9.00">app&#45;worker.js</text>
</a>
</g>
</g>
<!-- src/core/app&#45;worker.js&#45;&gt;events -->
<g id="edge2" class="edge"><title>src/core/app&#45;worker.js&#45;&gt;events</title>
<path fill="none" stroke="#000000" stroke-dasharray="5,2" stroke-opacity="0.200000" d="M324.264,-336C330.044,-336 336,-336 341.692,-336"/>
<polygon fill="#000000" fill-opacity="0.200000" stroke="#000000" stroke-opacity="0.200000" points="341.744,-338.1 347.744,-336 341.744,-333.9 341.744,-338.1"/>
</g>
<!-- src/server&#45;api&#45;result/index.js -->
<g id="node10" class="node"><title>src/server&#45;api&#45;result/index.js</title>
<g id="a_node10"><a xlink:href="src/server-api-result/index.js" xlink:title="index.js">
<path fill="#ffffcc" stroke="black" d="M185,-240C185,-240 143,-240 143,-240 140,-240 137,-237 137,-234 137,-234 137,-228 137,-228 137,-225 140,-222 143,-222 143,-222 185,-222 185,-222 188,-222 191,-225 191,-228 191,-228 191,-234 191,-234 191,-237 188,-240 185,-240"/>
<text text-anchor="middle" x="164" y="-228.8" font-family="Helvetica,sans-Serif" font-size="9.00">index.js</text>
</a>
</g>
</g>
<!-- src/server&#45;api&#45;result/index.js&#45;&gt;fs -->
<g id="edge4" class="edge"><title>src/server&#45;api&#45;result/index.js&#45;&gt;fs</title>
<path fill="none" stroke="#000000" stroke-dasharray="5,2" stroke-opacity="0.200000" d="M191.278,-222.769C198.464,-219.454 205.718,-214.965 211,-209 240.538,-175.646 211.609,-145.616 243,-114 246.324,-110.652 250.43,-108.05 254.78,-106.029"/>
<polygon fill="#000000" fill-opacity="0.200000" stroke="#000000" stroke-opacity="0.200000" points="255.603,-107.961 260.38,-103.766 254.03,-104.067 255.603,-107.961"/>
</g>
<!-- src/server&#45;api&#45;result/index.js&#45;&gt;http -->
<g id="edge5" class="edge"><title>src/server&#45;api&#45;result/index.js&#45;&gt;http</title>
<path fill="none" stroke="#000000" stroke-dasharray="5,2" stroke-opacity="0.200000" d="M188.399,-221.83C195.949,-218.354 204.134,-214.008 211,-209 237.427,-189.723 262.289,-160.429 275.85,-143.152"/>
<polygon fill="#000000" fill-opacity="0.200000" stroke="#000000" stroke-opacity="0.200000" points="277.671,-144.23 279.685,-138.2 274.35,-141.658 277.671,-144.23"/>
</g>
<!-- src/server&#45;api&#45;result/index.js&#45;&gt;net -->
<g id="edge6" class="edge"><title>src/server&#45;api&#45;result/index.js&#45;&gt;net</title>
<path fill="none" stroke="#000000" stroke-dasharray="5,2" stroke-opacity="0.200000" d="M191.267,-223.378C198.627,-220.058 205.98,-215.413 211,-209 254.357,-153.61 196.556,-106.829 243,-54 246.189,-50.3721 250.299,-47.6212 254.716,-45.5353"/>
<polygon fill="#000000" fill-opacity="0.200000" stroke="#000000" stroke-opacity="0.200000" points="255.65,-47.4234 260.43,-43.233 254.08,-43.5277 255.65,-47.4234"/>
</g>
<!-- src/server&#45;api&#45;result/index.js&#45;&gt;path -->
<g id="edge7" class="edge"><title>src/server&#45;api&#45;result/index.js&#45;&gt;path</title>
<path fill="none" stroke="#000000" stroke-dasharray="5,2" stroke-opacity="0.200000" d="M191.083,-223.23C198.436,-219.905 205.831,-215.293 211,-209 247.4,-164.686 204.134,-126.168 243,-84 246.198,-80.5307 250.235,-77.8638 254.555,-75.8137"/>
<polygon fill="#000000" fill-opacity="0.200000" stroke="#000000" stroke-opacity="0.200000" points="255.376,-77.7468 260.136,-73.5328 253.787,-73.8589 255.376,-77.7468"/>
</g>
<!-- src/server&#45;api&#45;result/index.js&#45;&gt;src/core/app&#45;server.js -->
<g id="edge3" class="edge"><title>src/server&#45;api&#45;result/index.js&#45;&gt;src/core/app&#45;server.js</title>
<path fill="none" stroke="#000000" stroke-width="2" stroke-opacity="0.200000" d="M179.898,-240.196C201.696,-253.652 242.321,-278.729 266.637,-293.739"/>
<polygon fill="#000000" fill-opacity="0.200000" stroke="#000000" stroke-width="2" stroke-opacity="0.200000" points="265.651,-295.598 271.859,-296.963 267.857,-292.024 265.651,-295.598"/>
</g>
<!-- src/server&#45;api&#45;search/index.js -->
<g id="node11" class="node"><title>src/server&#45;api&#45;search/index.js</title>
<g id="a_node11"><a xlink:href="src/server-api-search/index.js" xlink:title="index.js">
<path fill="#ffffcc" stroke="black" d="M185,-300C185,-300 143,-300 143,-300 140,-300 137,-297 137,-294 137,-294 137,-288 137,-288 137,-285 140,-282 143,-282 143,-282 185,-282 185,-282 188,-282 191,-285 191,-288 191,-288 191,-294 191,-294 191,-297 188,-300 185,-300"/>
<text text-anchor="middle" x="164" y="-288.8" font-family="Helvetica,sans-Serif" font-size="9.00">index.js</text>
</a>
</g>
</g>
<!-- src/server&#45;api&#45;search/index.js&#45;&gt;http -->
<g id="edge9" class="edge"><title>src/server&#45;api&#45;search/index.js&#45;&gt;http</title>
<path fill="none" stroke="#000000" stroke-dasharray="5,2" stroke-opacity="0.200000" d="M191.143,-281.954C198.161,-278.652 205.36,-274.373 211,-269 249.478,-232.344 272.771,-171.684 281.965,-143.824"/>
<polygon fill="#000000" fill-opacity="0.200000" stroke="#000000" stroke-opacity="0.200000" points="283.971,-144.445 283.81,-138.09 279.973,-143.159 283.971,-144.445"/>
</g>
<!-- src/server&#45;api&#45;search/index.js&#45;&gt;src/core/app&#45;server.js -->
<g id="edge8" class="edge"><title>src/server&#45;api&#45;search/index.js&#45;&gt;src/core/app&#45;server.js</title>
<path fill="none" stroke="#000000" stroke-width="2" stroke-opacity="0.200000" d="M191.065,-294.218C206.977,-296.182 227.664,-298.736 245.708,-300.964"/>
<polygon fill="#000000" fill-opacity="0.200000" stroke="#000000" stroke-width="2" stroke-opacity="0.200000" points="245.503,-303.054 251.715,-301.706 246.017,-298.886 245.503,-303.054"/>
</g>
<!-- src/server&#45;web&#45;app/index.js -->
<g id="node12" class="node"><title>src/server&#45;web&#45;app/index.js</title>
<g id="a_node12"><a xlink:href="src/server-web-app/index.js" xlink:title="index.js">
<path fill="#ffffcc" stroke="black" d="M185,-180C185,-180 143,-180 143,-180 140,-180 137,-177 137,-174 137,-174 137,-168 137,-168 137,-165 140,-162 143,-162 143,-162 185,-162 185,-162 188,-162 191,-165 191,-168 191,-168 191,-174 191,-174 191,-177 188,-180 185,-180"/>
<text text-anchor="middle" x="164" y="-168.8" font-family="Helvetica,sans-Serif" font-size="9.00">index.js</text>
</a>
</g>
</g>
<!-- src/server&#45;web&#45;app/index.js&#45;&gt;fs -->
<g id="edge11" class="edge"><title>src/server&#45;web&#45;app/index.js&#45;&gt;fs</title>
<path fill="none" stroke="#000000" stroke-dasharray="5,2" stroke-opacity="0.200000" d="M182.618,-161.87C191.436,-157.002 202.1,-150.654 211,-144 226.614,-132.327 226.305,-124.067 243,-114 246.585,-111.838 250.525,-109.933 254.525,-108.27"/>
<polygon fill="#000000" fill-opacity="0.200000" stroke="#000000" stroke-opacity="0.200000" points="255.552,-110.124 260.393,-106.004 254.04,-106.206 255.552,-110.124"/>
</g>
<!-- src/server&#45;web&#45;app/index.js&#45;&gt;http -->
<g id="edge12" class="edge"><title>src/server&#45;web&#45;app/index.js&#45;&gt;http</title>
<path fill="none" stroke="#000000" stroke-dasharray="5,2" stroke-opacity="0.200000" d="M191.065,-161.99C209.723,-155.54 234.946,-146.821 254.775,-139.967"/>
<polygon fill="#000000" fill-opacity="0.200000" stroke="#000000" stroke-opacity="0.200000" points="255.494,-141.94 260.478,-137.995 254.121,-137.971 255.494,-141.94"/>
</g>
<!-- src/server&#45;web&#45;app/index.js&#45;&gt;net -->
<g id="edge13" class="edge"><title>src/server&#45;web&#45;app/index.js&#45;&gt;net</title>
<path fill="none" stroke="#000000" stroke-dasharray="5,2" stroke-opacity="0.200000" d="M187.43,-161.846C195.784,-157.495 204.746,-151.565 211,-144 238.05,-111.28 212.838,-83.8752 243,-54 246.352,-50.6797 250.473,-48.0931 254.829,-46.0783"/>
<polygon fill="#000000" fill-opacity="0.200000" stroke="#000000" stroke-opacity="0.200000" points="255.653,-48.0105 260.433,-43.8199 254.083,-44.1149 255.653,-48.0105"/>
</g>
<!-- src/server&#45;web&#45;app/index.js&#45;&gt;path -->
<g id="edge14" class="edge"><title>src/server&#45;web&#45;app/index.js&#45;&gt;path</title>
<path fill="none" stroke="#000000" stroke-dasharray="5,2" stroke-opacity="0.200000" d="M185.936,-161.841C194.461,-157.367 203.946,-151.348 211,-144 231.93,-122.198 220.011,-103.618 243,-84 246.426,-81.0766 250.452,-78.7134 254.649,-76.8053"/>
<polygon fill="#000000" fill-opacity="0.200000" stroke="#000000" stroke-opacity="0.200000" points="255.654,-78.6643 260.436,-74.4757 254.086,-74.7681 255.654,-78.6643"/>
</g>
<!-- src/server&#45;web&#45;app/index.js&#45;&gt;src/core/app&#45;server.js -->
<g id="edge10" class="edge"><title>src/server&#45;web&#45;app/index.js&#45;&gt;src/core/app&#45;server.js</title>
<path fill="none" stroke="#000000" stroke-width="2" stroke-opacity="0.200000" d="M176.872,-180.308C186.489,-188.082 200.172,-199.682 211,-211 236.693,-237.855 262.828,-272.811 276.596,-291.95"/>
<polygon fill="#000000" fill-opacity="0.200000" stroke="#000000" stroke-width="2" stroke-opacity="0.200000" points="274.943,-293.249 280.14,-296.909 278.36,-290.807 274.943,-293.249"/>
</g>
<!-- stream -->
<g id="node13" class="node"><title>stream</title>
<path fill="#ffffcc" stroke="grey" d="M308.5,-18C308.5,-18 266.5,-18 266.5,-18 263.5,-18 260.5,-15 260.5,-12 260.5,-12 260.5,-6 260.5,-6 260.5,-3 263.5,-0 266.5,-0 266.5,-0 308.5,-0 308.5,-0 311.5,-0 314.5,-3 314.5,-6 314.5,-6 314.5,-12 314.5,-12 314.5,-15 311.5,-18 308.5,-18"/>
<text text-anchor="middle" x="287.5" y="-6.8" font-family="Helvetica,sans-Serif" font-size="9.00" fill="grey">stream</text>
</g>
<!-- src/server&#45;web&#45;app/index.js&#45;&gt;stream -->
<g id="edge15" class="edge"><title>src/server&#45;web&#45;app/index.js&#45;&gt;stream</title>
<path fill="none" stroke="#000000" stroke-dasharray="5,2" stroke-opacity="0.200000" d="M188.226,-161.854C196.484,-157.558 205.169,-151.665 211,-144 244.418,-100.069 205.389,-64.3995 243,-24 246.215,-20.5467 250.262,-17.8884 254.586,-15.8421"/>
<polygon fill="#000000" fill-opacity="0.200000" stroke="#000000" stroke-opacity="0.200000" points="255.407,-17.7751 260.169,-13.5636 253.82,-13.8864 255.407,-17.7751"/>
</g>
<!-- src/sf&#45;engine/index.js -->
<g id="node14" class="node"><title>src/sf&#45;engine/index.js</title>
<g id="a_node14"><a xlink:href="src/sf-engine/index.js" xlink:title="index.js">
<path fill="#ffffcc" stroke="black" d="M185,-484C185,-484 143,-484 143,-484 140,-484 137,-481 137,-478 137,-478 137,-472 137,-472 137,-469 140,-466 143,-466 143,-466 185,-466 185,-466 188,-466 191,-469 191,-472 191,-472 191,-478 191,-478 191,-481 188,-484 185,-484"/>
<text text-anchor="middle" x="164" y="-472.8" font-family="Helvetica,sans-Serif" font-size="9.00">index.js</text>
</a>
</g>
</g>
<!-- src/sf&#45;engine/index.js&#45;&gt;src/core/app&#45;worker.js -->
<g id="edge16" class="edge"><title>src/sf&#45;engine/index.js&#45;&gt;src/core/app&#45;worker.js</title>
<path fill="none" stroke="#000000" stroke-width="2" stroke-opacity="0.200000" d="M185.602,-465.974C194.071,-461.63 203.604,-455.864 211,-449 242.885,-419.408 268.005,-373.827 279.565,-350.638"/>
<polygon fill="#000000" fill-opacity="0.200000" stroke="#000000" stroke-width="2" stroke-opacity="0.200000" points="281.451,-351.56 282.207,-345.248 277.68,-349.711 281.451,-351.56"/>
</g>
<!-- src/sf&#45;engine/mappers/index.js -->
<g id="node15" class="node"><title>src/sf&#45;engine/mappers/index.js</title>
<g id="a_node15"><a xlink:href="src/sf-engine/mappers/index.js" xlink:title="index.js">
<path fill="#ffffcc" stroke="black" d="M308.5,-488C308.5,-488 266.5,-488 266.5,-488 263.5,-488 260.5,-485 260.5,-482 260.5,-482 260.5,-476 260.5,-476 260.5,-473 263.5,-470 266.5,-470 266.5,-470 308.5,-470 308.5,-470 311.5,-470 314.5,-473 314.5,-476 314.5,-476 314.5,-482 314.5,-482 314.5,-485 311.5,-488 308.5,-488"/>
<text text-anchor="middle" x="287.5" y="-476.8" font-family="Helvetica,sans-Serif" font-size="9.00">index.js</text>
</a>
</g>
</g>
<!-- src/sf&#45;engine/index.js&#45;&gt;src/sf&#45;engine/mappers/index.js -->
<g id="edge17" class="edge"><title>src/sf&#45;engine/index.js&#45;&gt;src/sf&#45;engine/mappers/index.js</title>
<path fill="none" stroke="#000000" stroke-width="2" stroke-opacity="0.200000" d="M191.065,-475.858C209.563,-476.467 234.513,-477.289 254.263,-477.939"/>
<polygon fill="#000000" fill-opacity="0.200000" stroke="#000000" stroke-width="2" stroke-opacity="0.200000" points="254.412,-480.045 260.478,-478.143 254.551,-475.847 254.412,-480.045"/>
</g>
<!-- src/sf&#45;engine/requester/index.js -->
<g id="node16" class="node"><title>src/sf&#45;engine/requester/index.js</title>
<g id="a_node16"><a xlink:href="src/sf-engine/requester/index.js" xlink:title="index.js">
<path fill="#ffffcc" stroke="black" d="M308.5,-548C308.5,-548 266.5,-548 266.5,-548 263.5,-548 260.5,-545 260.5,-542 260.5,-542 260.5,-536 260.5,-536 260.5,-533 263.5,-530 266.5,-530 266.5,-530 308.5,-530 308.5,-530 311.5,-530 314.5,-533 314.5,-536 314.5,-536 314.5,-542 314.5,-542 314.5,-545 311.5,-548 308.5,-548"/>
<text text-anchor="middle" x="287.5" y="-536.8" font-family="Helvetica,sans-Serif" font-size="9.00">index.js</text>
</a>
</g>
</g>
<!-- src/sf&#45;engine/index.js&#45;&gt;src/sf&#45;engine/requester/index.js -->
<g id="edge18" class="edge"><title>src/sf&#45;engine/index.js&#45;&gt;src/sf&#45;engine/requester/index.js</title>
<path fill="none" stroke="#000000" stroke-width="2" stroke-opacity="0.200000" d="M181.671,-484.137C197.419,-492.73 221.731,-505.897 243,-517 249.318,-520.298 256.187,-523.807 262.561,-527.032"/>
<polygon fill="#000000" fill-opacity="0.200000" stroke="#000000" stroke-width="2" stroke-opacity="0.200000" points="261.942,-529.071 268.245,-529.898 263.834,-525.321 261.942,-529.071"/>
</g>
<!-- src/sf&#45;mailer/index.js -->
<g id="node17" class="node"><title>src/sf&#45;mailer/index.js</title>
<g id="a_node17"><a xlink:href="src/sf-mailer/index.js" xlink:title="index.js">
<path fill="#ffffcc" stroke="black" d="M185,-360C185,-360 143,-360 143,-360 140,-360 137,-357 137,-354 137,-354 137,-348 137,-348 137,-345 140,-342 143,-342 143,-342 185,-342 185,-342 188,-342 191,-345 191,-348 191,-348 191,-354 191,-354 191,-357 188,-360 185,-360"/>
<text text-anchor="middle" x="164" y="-348.8" font-family="Helvetica,sans-Serif" font-size="9.00">index.js</text>
</a>
</g>
</g>
<!-- src/sf&#45;mailer/index.js&#45;&gt;src/core/app&#45;worker.js -->
<g id="edge19" class="edge"><title>src/sf&#45;mailer/index.js&#45;&gt;src/core/app&#45;worker.js</title>
<path fill="none" stroke="#000000" stroke-width="2" stroke-opacity="0.200000" d="M191.065,-347.782C206.59,-345.865 226.661,-343.388 244.387,-341.199"/>
<polygon fill="#000000" fill-opacity="0.200000" stroke="#000000" stroke-width="2" stroke-opacity="0.200000" points="245.102,-343.227 250.799,-340.408 244.587,-339.059 245.102,-343.227"/>
</g>
<!-- src/sf&#45;master/index.js -->
<g id="node18" class="node"><title>src/sf&#45;master/index.js</title>
<g id="a_node18"><a xlink:href="src/sf-master/index.js" xlink:title="index.js">
<path fill="#ffffcc" stroke="black" d="M72,-300C72,-300 30,-300 30,-300 27,-300 24,-297 24,-294 24,-294 24,-288 24,-288 24,-285 27,-282 30,-282 30,-282 72,-282 72,-282 75,-282 78,-285 78,-288 78,-288 78,-294 78,-294 78,-297 75,-300 72,-300"/>
<text text-anchor="middle" x="51" y="-288.8" font-family="Helvetica,sans-Serif" font-size="9.00">index.js</text>
</a>
</g>
</g>
<!-- src/sf&#45;master/index.js&#45;&gt;os -->
<g id="edge26" class="edge"><title>src/sf&#45;master/index.js&#45;&gt;os</title>
<path fill="none" stroke="#000000" stroke-dasharray="5,2" stroke-opacity="0.200000" d="M54.0363,-281.93C59.8982,-257.698 78.9486,-190.609 118,-151 121.856,-147.089 126.548,-143.769 131.429,-140.986"/>
<polygon fill="#000000" fill-opacity="0.200000" stroke="#000000" stroke-opacity="0.200000" points="132.439,-142.828 136.769,-138.174 130.482,-139.111 132.439,-142.828"/>
</g>
<!-- src/sf&#45;master/index.js&#45;&gt;src/server&#45;api&#45;result/index.js -->
<g id="edge20" class="edge"><title>src/sf&#45;master/index.js&#45;&gt;src/server&#45;api&#45;result/index.js</title>
<path fill="none" stroke="#000000" stroke-width="2" stroke-opacity="0.200000" d="M68.8585,-281.887C88.1214,-271.475 119.713,-254.398 140.925,-242.932"/>
<polygon fill="#000000" fill-opacity="0.200000" stroke="#000000" stroke-width="2" stroke-opacity="0.200000" points="142.067,-244.702 146.347,-240.002 140.07,-241.008 142.067,-244.702"/>
</g>
<!-- src/sf&#45;master/index.js&#45;&gt;src/server&#45;api&#45;search/index.js -->
<g id="edge21" class="edge"><title>src/sf&#45;master/index.js&#45;&gt;src/server&#45;api&#45;search/index.js</title>
<path fill="none" stroke="#000000" stroke-width="2" stroke-opacity="0.200000" d="M78.0246,-291C93.7759,-291 113.989,-291 130.75,-291"/>
<polygon fill="#000000" fill-opacity="0.200000" stroke="#000000" stroke-width="2" stroke-opacity="0.200000" points="130.754,-293.1 136.754,-291 130.754,-288.9 130.754,-293.1"/>
</g>
<!-- src/sf&#45;master/index.js&#45;&gt;src/server&#45;web&#45;app/index.js -->
<g id="edge22" class="edge"><title>src/sf&#45;master/index.js&#45;&gt;src/server&#45;web&#45;app/index.js</title>
<path fill="none" stroke="#000000" stroke-width="2" stroke-opacity="0.200000" d="M58.8924,-281.735C70.4492,-266.418 94.7592,-235.113 118,-211 127.181,-201.475 138.282,-191.591 147.162,-184.032"/>
<polygon fill="#000000" fill-opacity="0.200000" stroke="#000000" stroke-width="2" stroke-opacity="0.200000" points="148.606,-185.561 151.84,-180.088 145.899,-182.35 148.606,-185.561"/>
</g>
<!-- src/sf&#45;master/index.js&#45;&gt;src/sf&#45;engine/index.js -->
<g id="edge23" class="edge"><title>src/sf&#45;master/index.js&#45;&gt;src/sf&#45;engine/index.js</title>
<path fill="none" stroke="#000000" stroke-width="2" stroke-opacity="0.200000" d="M53.7083,-300.303C58.9448,-326.558 76.9721,-402.342 118,-449 122.841,-454.505 129.142,-459.135 135.489,-462.89"/>
<polygon fill="#000000" fill-opacity="0.200000" stroke="#000000" stroke-width="2" stroke-opacity="0.200000" points="134.534,-464.763 140.8,-465.839 136.573,-461.091 134.534,-464.763"/>
</g>
<!-- src/sf&#45;master/index.js&#45;&gt;src/sf&#45;mailer/index.js -->
<g id="edge24" class="edge"><title>src/sf&#45;master/index.js&#45;&gt;src/sf&#45;mailer/index.js</title>
<path fill="none" stroke="#000000" stroke-width="2" stroke-opacity="0.200000" d="M67.0412,-300.049C80.3138,-307.939 100.254,-319.567 118,-329 124.479,-332.444 131.575,-336.007 138.179,-339.238"/>
<polygon fill="#000000" fill-opacity="0.200000" stroke="#000000" stroke-width="2" stroke-opacity="0.200000" points="137.27,-341.131 143.585,-341.863 139.105,-337.353 137.27,-341.131"/>
</g>
<!-- src/sf&#45;registry/index.js -->
<g id="node19" class="node"><title>src/sf&#45;registry/index.js</title>
<g id="a_node19"><a xlink:href="src/sf-registry/index.js" xlink:title="index.js">
<path fill="#ffffcc" stroke="black" d="M185,-420C185,-420 143,-420 143,-420 140,-420 137,-417 137,-414 137,-414 137,-408 137,-408 137,-405 140,-402 143,-402 143,-402 185,-402 185,-402 188,-402 191,-405 191,-408 191,-408 191,-414 191,-414 191,-417 188,-420 185,-420"/>
<text text-anchor="middle" x="164" y="-408.8" font-family="Helvetica,sans-Serif" font-size="9.00">index.js</text>
</a>
</g>
</g>
<!-- src/sf&#45;master/index.js&#45;&gt;src/sf&#45;registry/index.js -->
<g id="edge25" class="edge"><title>src/sf&#45;master/index.js&#45;&gt;src/sf&#45;registry/index.js</title>
<path fill="none" stroke="#000000" stroke-width="2" stroke-opacity="0.200000" d="M56.1803,-300.276C65.099,-319.178 87.6789,-362.598 118,-389 122.525,-392.94 127.88,-396.355 133.289,-399.241"/>
<polygon fill="#000000" fill-opacity="0.200000" stroke="#000000" stroke-width="2" stroke-opacity="0.200000" points="132.382,-401.135 138.687,-401.95 134.267,-397.382 132.382,-401.135"/>
</g>
<!-- src/sf&#45;registry/index.js&#45;&gt;src/core/app&#45;worker.js -->
<g id="edge27" class="edge"><title>src/sf&#45;registry/index.js&#45;&gt;src/core/app&#45;worker.js</title>
<path fill="none" stroke="#000000" stroke-width="2" stroke-opacity="0.200000" d="M185.987,-401.857C193.97,-398.149 203.052,-393.647 211,-389 232.055,-376.689 254.779,-360.268 269.735,-348.985"/>
<polygon fill="#000000" fill-opacity="0.200000" stroke="#000000" stroke-width="2" stroke-opacity="0.200000" points="271.37,-350.38 274.876,-345.077 268.828,-347.036 271.37,-350.38"/>
</g>
</g>
</svg>
